<?xml version="1.0" encoding="UTF-8"?>
<svg id="Capa_1" data-name="Capa 1" xmlns="http://www.w3.org/2000/svg" viewBox="0 0 213.94 197.58">
  <path d="M103.49.47c22.07-1.95,43.72,2.18,62.69,13.61,46.15,27.8,61.94,89.11,33.66,135.83-34.7,57.33-116.16,64.55-159.49,12.99-2.64-3.14-7.7-7.5-7.92-11.83-.39-7.64,6.01-10.93,12.76-8.34,4.93,4.55,8.32,11.28,13.26,15.74,23.32,21.04,58.41,28.81,87.97,16.28,51.63-21.89,66.73-86.89,30.52-129.84C138.28-.95,61.4,12.21,39.16,67.49c-.53,1.32-3.32,10.25-3.19,11.1.12.79.48,1.63,1.13,2.15l6.68-3.71c2.46-.09,5.56-.74,7.56.97,3.18,2.72,5.06,7.47,2.45,11.23-1.77,2.56-5.95,5.06-8.6,6.72-3.48,2.17-8.3,4.2-11.85,6.22-4.98,2.84-7.88,7.03-14.6,4.6-2.72-.98-4.18-4.95-5.53-7.06-2.97-4.63-5.47-9.32-8.22-14.22S-.8,78.58.19,72.3c.42-2.62,4.87-6,7.41-6.31,3.02-.37,6.8,2.26,8.35,4.72.55.87,1.18,4.85,2.56,3.5.41-.41,2.19-3.9,2.47-4.65,3.66-9.73,6.21-17.68,12.32-26.53C48.59,20.88,76.37,2.86,103.49.47Z"/>
  <path d="M110.85,78.7c-1.04,1.04-1.02,9.98,0,10.7,4.99,1.39,10.4.22,15.47.67,11.35,1.02,19.57,12.27,19.48,23.26-.09,11.07-10.15,22.05-21.11,23.25-4.78.52-18.95.66-23.56.02-6.82-.94-10.94-9.81-5.17-15.08,4.42-4.04,19.99-.73,26.42-2.04s9.28-8.75,2.62-12.22l-24.37-.25c-3.42-1.88-7.03-4.22-7.43-8.45-.89-9.56.74-20.45,0-30.16.35-2.61,5.15-7,7.94-7.39,4.74-.65,29.58-.77,33.94.05,1.35.25,6.13,2.85,6.79,4.15,1.87,3.64.92,9.11-2.69,11.4-5.41,3.43-25.96-.28-28.3,2.07Z"/>
</svg>