<?xml version="1.0" encoding="UTF-8"?>
<svg id="Capa_1" data-name="Capa 1" xmlns="http://www.w3.org/2000/svg" viewBox="0 0 247.85 228.85">
  <path d="M101.11.51c52.7-4.66,101.14,23.2,120.41,72.52,1.62,4.15,1.7,9.46,5.53,12.84,3.21-6.54,8.99-12.49,16.38-7.49,10.28,6.96.02,18.04-4.15,25.43-2.72,4.82-7.34,15.12-11.24,18.55-2.75,2.41-7.56,2.77-10.78,1.2-7.6-3.7-16.79-9.78-24.18-14.48-1.27-.81-2.96-.99-4.33-2-3.84-2.84-6.03-8.7-3.71-13.14.38-.73,4.36-4.09,5.1-4.41,5.53-2.38,10.37,1.13,14.74,3.95.94-.8,1.4-2.17,1.38-3.37s-3.11-10.44-3.76-11.98c-10.84-25.58-34.43-47.3-61.17-54.82C85.89,7.73,30.53,42.93,20.92,99.05c-8.88,51.87,27.32,100.26,78.28,108.98,35.09,6.01,66.74-8.03,88.87-34.37,4.87-5.8,7.13-11.02,15.89-8.91,5.89,1.42,7.56,9.06,5.15,14.11-1.11,2.32-3.57,4.25-4.83,5.94C148.26,259.7,28.65,234.26,3.93,144.84-14.22,79.17,32.59,6.57,101.11.51Z"/>
  <path d="M115.92,91.69c-1.08.7-1.16,10.95.03,11.8,7.62,2.09,16.74-.87,24.1,2.19,3.81,1.58,10.14,7.75,12.16,11.3,10.68,18.76-2.19,38.65-22.78,40.51-5.43.49-25.29.63-29.43-1.62-.55-.3-4.21-4.7-4.35-5.16-1.56-5.22,2.38-11.27,7.46-12.57,7.49-1.9,23.88,1.9,30.13-2.2,4.57-2.99,3.35-9.26-.91-11.77-9.74-1.94-35.44,4.88-36.83-10.07-.55-5.94-.89-30.29.3-35.25s6.21-7.17,10.79-7.59c8.31-.76,28-.92,36.1.08,1.08.13,4.97,1.28,5.79,1.82.24.16,3.64,4.21,3.76,4.48,2.34,5.1-2.31,11.74-7.26,13-8.07,2.05-20.54-1.39-29.06,1.04Z"/>
  <path d="M71.28,71.43c5.67-.45,10.36,5.57,10.33,10.94-1.94,20.37,2.52,45.44-.08,65.26-1.67,12.68-18.42,12.84-19.62-.55-1.91-21.33,1.43-45.52.08-67.15.61-4.42,4.92-8.13,9.29-8.48Z"/>
</svg>