<?xml version="1.0" encoding="UTF-8"?>
<svg id="Capa_1" data-name="Capa 1" xmlns="http://www.w3.org/2000/svg" viewBox="0 0 164.73 140.42">
  <path d="M108.27,40.55c12.41,11.43,19.09,27.92,11.62,44.26-8.35,18.26-61.19,52.13-80.76,55.24-16.41,2.61-33.73-8.9-36.39-25.5-3.71-23.16-3.61-63.58.04-86.84C5.54,10.12,18.85-1.76,37.08.21s57.4,27.63,71.19,40.33Z"/>
  <path d="M151.42,2.36c6.72-1.74,11.92,1.61,13.3,8.21l-.79,122.3c-5.45,8.36-17.29,6.96-19.3-3.21l.02-119.07c-.23-3.37,3.79-7.46,6.76-8.23Z"/>
</svg>