<?xml version="1.0" encoding="UTF-8"?>
<svg id="Capa_1" data-name="Capa 1" xmlns="http://www.w3.org/2000/svg" viewBox="0 0 186.13 218.32">
  <path d="M29.81.33c2.87-.25,6.66-.37,9.52-.16,5.04.36,13.39,4.35,17.33,7.74,6.8,5.84,10.61,14.66,12.3,23.37l-.05,156.16c-2.83,13.44-9.16,24.27-22.6,28.98-5.12,1.79-16.75,2.64-21.83,1.07-.65-.2-9.81-4.81-10.26-5.17-7.8-6.29-13.03-14.96-14.21-25.32l-.02-152.85C.72,17.47,12.33,1.85,29.81.33Z"/>
  <path d="M145.5.31c3.17-.5,13.2-.44,16.15.47.65.2,9.81,4.81,10.26,5.17,7.8,6.29,13.03,14.96,14.21,25.32l.02,152.85c-1.44,3.65-.3,7.78-1.85,11.17-2.1,4.57-3.58,6.91-6.58,10.78-7.94,10.25-17.94,12.98-30.9,12.04-5.04-.36-13.39-4.35-17.33-7.74-6.8-5.84-10.61-14.66-12.3-23.37l.05-156.16c2.71-15.09,12.36-28.03,28.29-30.53Z"/>
</svg>